<svg width="72" height="72" viewBox="0 0 72 72" fill="none" xmlns="http://www.w3.org/2000/svg">
<rect width="72" height="72" rx="3" fill="#E8ECEE"/>
<path fill-rule="evenodd" clip-rule="evenodd" d="M19.9518 16.1136C19.597 16.2721 19.2757 16.6114 19.139 16.9719C19.0675 17.1604 19.0361 22.6845 19.0361 35.096V52.9488L17.9827 52.9815C17.101 53.0087 16.8857 53.0464 16.6633 53.2126C16.1577 53.5903 16 53.8981 16 54.507C16 55.1162 16.1579 55.424 16.6636 55.8014L16.9298 56H36H55.0702L55.3364 55.8014C55.8421 55.424 56 55.1162 56 54.507C56 53.8981 55.8423 53.5903 55.3367 53.2126C55.1143 53.0465 54.899 53.0087 54.0183 52.9815L52.9657 52.9489L52.9406 38.0346C52.9157 23.1407 52.9154 23.1199 52.7169 22.8543C52.6076 22.708 52.3985 22.499 52.2521 22.3897C51.9913 22.1952 51.8714 22.1905 46.3106 22.1648L40.6354 22.1385L40.6068 19.5469C40.5799 17.1036 40.5669 16.94 40.3796 16.6895C40.2703 16.5433 40.0611 16.3344 39.9147 16.2251C39.6505 16.028 39.5788 16.0263 29.9448 16.0055C22.0041 15.9883 20.1884 16.0079 19.9518 16.1136ZM37.5654 33.9835C37.5904 48.8859 37.5907 48.9066 37.7891 49.1722C38.1667 49.6777 38.4748 49.8354 39.0843 49.8354C39.6939 49.8354 40.0019 49.6777 40.3796 49.1722C40.5774 48.9075 40.5784 48.8548 40.6036 37.0658L40.6287 25.2252H45.2542H49.8795V39.0956V52.9659H42.1731H34.4667L34.4382 50.372C34.4113 47.9265 34.3983 47.763 34.2109 47.5124C34.1016 47.3662 33.8924 47.1573 33.746 47.0481C33.4882 46.8556 33.366 46.8494 29.8313 46.8494C26.2967 46.8494 26.1745 46.8556 25.9166 47.0481C25.7702 47.1573 25.5611 47.3662 25.4518 47.5124C25.2644 47.763 25.2514 47.9265 25.2245 50.372L25.196 52.9659H23.6582H22.1205V36.0133V19.0607H29.8305H37.5403L37.5654 33.9835ZM25.2048 23.6841V25.2252H26.747H28.2892V23.6841V22.143H26.747H25.2048V23.6841ZM31.3735 23.6841V25.2252H32.9157H34.4578V23.6841V22.143H32.9157H31.3735V23.6841ZM25.2048 29.8487V31.3898H26.747H28.2892V29.8487V28.3075H26.747H25.2048V29.8487ZM31.3735 29.8487V31.3898H32.9157H34.4578V29.8487V28.3075H32.9157H31.3735V29.8487ZM43.7108 29.8487V31.3898H45.253H46.7952V29.8487V28.3075H45.253H43.7108V29.8487ZM25.2048 36.0133V37.5544H26.747H28.2892V36.0133V34.4721H26.747H25.2048V36.0133ZM31.3735 36.0133V37.5544H32.9157H34.4578V36.0133V34.4721H32.9157H31.3735V36.0133ZM43.7108 36.0133V37.5544H45.253H46.7952V36.0133V34.4721H45.253H43.7108V36.0133ZM25.2048 42.1778V43.719H26.747H28.2892V42.1778V40.6367H26.747H25.2048V42.1778ZM31.3735 42.1778V43.719H32.9157H34.4578V42.1778V40.6367H32.9157H31.3735V42.1778ZM43.7108 42.1778V43.719H45.253H46.7952V42.1778V40.6367H45.253H43.7108V42.1778ZM43.7108 48.3424V49.8836H45.253H46.7952V48.3424V46.8013H45.253H43.7108V48.3424ZM31.3735 51.4247V52.9659H29.8313H28.2892V51.4247V49.8836H29.8313H31.3735V51.4247Z" fill="#70808A" fill-opacity="0.7"/>
</svg>
